<?xml version="1.0" encoding="UTF-8"?>
<svg id="_레이어_2" data-name="레이어 2" xmlns="http://www.w3.org/2000/svg" viewBox="0 0 1000 1000">
  <defs>
    <style>
      .cls-1 {
        fill: #7bae7f;
      }
    </style>
  </defs>
  <path class="cls-1" d="M763.38,723.57c-2.08-6.44-10.7-7.56-18.48-11.22-10.47-4.92-25.66-13.28-42.36-33.97-.75,1.63,23.11-36.78,30.42-76.74,4.45-24.32,7.1-51.71-8.77-78.6-18.76-31.8-50.67-38.4-84.01-48.49-7.11-2.15-44.5-7.05-75.48-6.69-57.86.67-70.68,22.83-80.06,32.14-19.08,18.95-21.8,70.11,17.4,84.87,23.33,8.79,50.85-22.14,80.32-20.47.1,0,.2,0,.31,0,28.26-2.28,18.91,37.98,18.91,37.98,0,0-5.08,33.12-57.2,48.98-.09.03-.19.05-.28.07-49.54,10.59-105.39-9.23-125.41-44.79-18.37-32.63-18.46-48.41-18.34-50.81.01-.24-.01-.46-.06-.7-1.19-5.43-13.84-69.7,43.74-122.93.05-.05.09-.09.14-.14,1.49-1.65,30.19-32.73,80.17-36.36,50.1-3.64,84.73,18.28,86.37,19.34.05.03.08.05.13.08,1.7.94,34.3,18.78,54.58,16.56.11-.01.22-.03.32-.05,27.32-5.55,42.75-16.08,44.71-43.83-1.88-28.51-5.21-26.92-32.27-53.79-4.83-5.62-23.9-21.12-48.63-35.68-39.38-23.18-78.32-26.01-99.32-25.83-.08,0-.16,0-.25.01-2.5.26-42.5,4.55-58.85,9.81-1.43.46-2.97-.35-3.4-1.79-12.34-41.59-46.11-73.24-87.89-81.94-46.09-9.6-94.01,7.88-118.27,41.01-6.36,8.68-32.4,41.08-23.48,73.82.03.12.07.24.12.35,8.5,21.89,27.61,31.83,34.76,36.63,8.69,5.84,25.76,14.12,46.88,17.23,11.49,1.69,21.77,4.6,22.11,6.03.34,1.43-2.68,7.77-10.93,18.93-5.24,7.08-9.65,14.75-14.87,21.84-16.19,21.99-25.82,65.17-26.93,70.27-3.77,17.33-11.96,57.04-.86,106.81,8.07,36.21,23.22,63.69,35.33,81.55,2.3,3.39-.08,7.71-.08,7.71,0,0-11.92,33.12-15.68,56.47-1.84,11.42-.54,25.03,2.29,32.98,10.01,28.12,51.63,28.45,54.92,28.67,30.91,2.05,46.71-1.97,56.6-16.86,6.43-9.69,10.03-19.49,12.52-36.43.09-1.63,1.57-2.8,3.17-2.52,17.32,3,29.27,5.35,52.83,6.47,23.56,1.12.17.01.26.01,3.08-.03,58.94-.64,83.87-3.94,1.53-.2,2.92.92,3.05,2.45.87,10.11,1.43,30.49,12.12,40.89,20.75,20.17,51.32,15.12,66.32,12.64,16.41-2.71,31.83-5.26,40.79-18.77,10.06-15.17,5.18-33.88,1.97-42.58-.74-2.01.99-4.06,3.09-3.62,10.22,2.11,30.1,5.72,44.46,4.85,2.99-.18,7.73-.68,11.71-4.06,3.86-3.28,6.98-9.26,5.5-13.85Z"/>
</svg>