<?xml version="1.0" encoding="UTF-8"?>
<svg id="_레이어_2" data-name=" 레이어 2" xmlns="http://www.w3.org/2000/svg" viewBox="0 0 821.13 946.47">
  <defs>
    <style>
      .cls-1 {
        fill: #fff;
      }
    </style>
  </defs>
  <path class="cls-1" d="M820.5,821.23c-3.24-10.02-16.66-11.77-28.76-17.46-16.3-7.66-39.94-20.67-65.94-52.88-1.17,2.54,35.97-57.25,47.35-119.45,6.93-37.86,11.05-80.49-13.65-122.34-29.2-49.5-78.87-59.77-130.77-75.48-11.07-3.35-69.27-10.97-117.49-10.41-90.06,1.04-110.02,35.54-124.62,50.03-29.7,29.5-33.93,109.13,27.08,132.1,36.31,13.68,79.15-34.46,125.02-31.86h.48c43.99-3.55,29.43,59.12,29.43,59.12,0,0-7.91,51.55-89.03,76.24-.14.05-.3.08-.44.11-77.11,16.48-164.04-14.37-195.21-69.72-28.59-50.79-28.73-75.35-28.55-79.09.02-.37-.02-.72-.09-1.09-1.85-8.45-21.54-108.49,68.08-191.35l.22-.22c2.32-2.57,46.99-50.95,124.79-56.6,77.98-5.67,131.89,28.45,134.44,30.1.08.05.12.08.2.12,2.65,1.46,53.39,29.23,84.96,25.78.17-.02.34-.05.5-.08,42.52-8.64,66.54-25.03,69.59-68.22-2.93-44.38-8.11-41.9-50.23-83.73-7.52-8.75-37.2-32.87-75.69-55.54-61.3-36.08-121.91-40.49-154.6-40.21-.12,0-.25,0-.39.02-3.89.4-66.15,7.08-91.6,15.27-2.23.72-4.62-.54-5.29-2.79-19.21-64.74-71.77-114-136.8-127.54-71.74-14.94-146.33,12.27-184.09,63.83-9.9,13.51-50.43,63.94-36.55,114.9.05.19.11.37.19.54,13.23,34.07,42.98,49.54,54.11,57.02,13.53,9.09,40.1,21.98,72.97,26.82,17.88,2.63,33.89,7.16,34.42,9.39s-4.17,12.09-17.01,29.47c-8.16,11.02-15.02,22.96-23.15,33.99-25.2,34.23-40.19,101.44-41.92,109.38-5.87,26.97-18.62,88.79-1.34,166.25,12.56,56.36,36.14,99.14,54.99,126.94,3.58,5.28-.12,12-.12,12,0,0-18.55,51.55-24.41,87.9-2.86,17.78-.84,38.96,3.56,51.33,15.58,43.77,80.36,44.28,85.49,44.63,48.11,3.19,72.71-3.07,88.1-26.24,10.01-15.08,15.61-30.34,19.49-56.7.14-2.54,2.44-4.36,4.93-3.92,26.96,4.67,45.56,8.33,82.23,10.07,36.67,1.74.26.02.4.02,4.79-.05,91.74-1,130.55-6.13,2.38-.31,4.55,1.43,4.75,3.81,1.35,15.74,2.23,47.46,18.87,63.65,32.3,31.4,79.88,23.53,103.23,19.67,25.54-4.22,49.54-8.19,63.49-29.22,15.66-23.61,8.06-52.74,3.07-66.28-1.15-3.13,1.54-6.32,4.81-5.63,15.91,3.28,46.85,8.9,69.2,7.55,4.65-.28,12.03-1.06,18.23-6.32,6.01-5.11,10.86-14.41,8.56-21.56h-.05Z"/>
</svg>